<?xml version="1.0" encoding="UTF-8"?>
<svg width="640" height="480" xmlns="http://www.w3.org/2000/svg">
 <g>
  <title>Layer 1</title>
  <g id="layer1">
   <g display="inline" id="g4623">
    <path fill="#000000" fill-rule="evenodd" stroke="#000000" stroke-width="1pt" id="rect2192" d="m308.653229,393.148163l36.696075,0l0,77.795776c-10.764191,5.137421 -23.730103,6.605255 -36.696075,0l0,-77.795776z"/>
    <path fill="#000000" fill-rule="evenodd" stroke="#000000" stroke-width="5.213945" stroke-miterlimit="4" id="path1307" d="m457.662354,402.306549c-83.260803,-16.924957 -172.676147,18.463623 -261.322205,0c60.478668,-55.434967 77.87561,-167.030121 130.661102,-226.311676c42.784393,57.74292 69.413116,170.876709 130.661102,226.311676z"/>
    <path fill="#000000" fill-rule="evenodd" stroke="#000000" stroke-width="4.168735" stroke-miterlimit="4" id="path2183" d="m431.469482,257.111053c-66.569977,-13.532104 -138.06076,14.762329 -208.936432,0c48.354858,-44.322235 62.264313,-133.546524 104.468201,-180.94426c34.207672,46.167526 55.49826,136.622025 104.468231,180.94426z"/>
    <path fill="#000000" fill-rule="evenodd" stroke="#000000" stroke-width="3.214893" stroke-miterlimit="4" id="path2185" d="m407.566254,141.634079c-51.338196,-10.435837 -106.471283,11.384583 -161.12999,0c37.290848,-34.180939 48.017715,-102.989906 80.564987,-139.542627c26.380676,35.603983 42.799774,105.361689 80.565002,139.542627z"/>
   </g>
  </g>
 </g>
</svg>